<svg width="200" height="230" viewBox="0 0 200 230" fill="none" xmlns="http://www.w3.org/2000/svg">
<path opacity="0.12" fill-rule="evenodd" clip-rule="evenodd" d="M125.641 149.742C84.5737 149.742 51.2821 116.345 51.2821 75.147C51.2821 33.9492 84.5737 0.551758 125.641 0.551758C166.708 0.551758 200 33.9492 200 75.147C200 116.345 166.708 149.742 125.641 149.742Z" fill="#FF3378"/>
<path opacity="0.488049" fill-rule="evenodd" clip-rule="evenodd" d="M8.2509 223.68C8.2509 221.186 46.0798 219.163 92.7429 219.163C139.407 219.163 177.235 221.186 177.235 223.68C177.235 226.173 139.407 228.196 92.7429 228.196C46.0798 228.196 8.2509 226.173 8.2509 223.68Z" fill="#CEE5ED"/>
<path fill-rule="evenodd" clip-rule="evenodd" d="M105.44 206.807L104.766 211.064L107.945 215.262L116.207 211.344L117.149 207.455L106.954 205.765L105.44 206.807Z" fill="#F2BF75"/>
<path fill-rule="evenodd" clip-rule="evenodd" d="M111.875 220.626L112.737 219.584C112.895 219.394 113.187 219.394 113.345 219.584L114.182 220.598C114.52 221.007 115.024 221.242 115.555 221.242L134.627 221.178C134.995 220.81 135.1 220.171 134.679 219.732C131.923 216.864 116.95 211.766 116.206 211.344C115.463 210.921 110.814 214.444 104.765 211.063C104.765 211.063 103.713 215.838 103.528 218.939C103.452 220.206 104.433 221.28 105.699 221.274L110.538 221.258C111.055 221.256 111.545 221.026 111.875 220.626Z" fill="#1E394C"/>
<path fill-rule="evenodd" clip-rule="evenodd" d="M74.8784 206.979L74.2054 211.237L77.3848 215.434L85.6464 211.516L86.5874 207.627L76.3938 205.937L74.8784 206.979Z" fill="#F2BF75"/>
<path fill-rule="evenodd" clip-rule="evenodd" d="M81.3145 220.798L82.1773 219.757C82.335 219.566 82.6261 219.566 82.7838 219.758L83.6222 220.771C83.9594 221.18 84.4632 221.416 84.994 221.414L104.066 221.35C104.435 220.982 104.539 220.343 104.118 219.904C101.362 217.036 86.3889 211.938 85.6453 211.516C84.9017 211.093 80.2543 214.616 74.2043 211.236C74.2043 211.236 73.1517 216.01 72.9671 219.111C72.8914 220.378 73.8722 221.452 75.1376 221.448L79.9773 221.431C80.494 221.429 80.9838 221.198 81.3145 220.798Z" fill="#1E394C"/>
<path fill-rule="evenodd" clip-rule="evenodd" d="M118.858 69.1467L124.663 91.3774L140.465 80.7977L147.613 86.4914L126.983 105.864L112.145 92.0552L118.858 69.1467Z" fill="#CEE5ED"/>
<path fill-rule="evenodd" clip-rule="evenodd" d="M140.488 80.8035L145.086 71.7003C145.588 70.7293 146.801 70.3808 147.74 70.9377C150.29 72.454 151.606 75.4314 150.985 78.338C150.36 81.2459 149.308 84.6838 147.614 86.492L140.488 80.8035Z" fill="#F2BF75"/>
<path fill-rule="evenodd" clip-rule="evenodd" d="M146.171 63.2322L151.214 62.8206C151.945 62.7602 152.412 63.2322 152.252 63.8688L148.677 78.0805C148.516 78.7171 147.787 79.2869 147.055 79.3461L142.012 79.7589C140.838 79.8541 140.161 81.9428 140.974 78.7094L144.55 64.4978C144.71 63.8624 145.439 63.2927 146.171 63.2322Z" fill="#1E394C"/>
<path fill-rule="evenodd" clip-rule="evenodd" d="M140.467 80.8406L139.411 77.4645C138.965 76.6066 139.225 75.5494 140.017 74.9977L141.769 73.7772C142.292 73.4132 143.005 73.5019 143.422 73.9829C143.896 74.5257 143.815 75.3565 143.247 75.7989L142.44 76.4253L141.617 77.0491L143.57 80.0059L140.467 80.8406Z" fill="#F2BF75"/>
<path fill-rule="evenodd" clip-rule="evenodd" d="M74.9286 207.97C74.9286 203.003 79.6104 120.324 79.6104 120.324C79.6104 120.324 91.2258 108.982 97.5463 110.183C103.867 108.982 118.237 117.39 118.237 117.39C118.237 117.39 116.868 203.003 116.868 207.97H105.318C105.318 207.97 103.083 170.691 97.7473 142.222C97.5088 140.95 97.7081 140.824 97.4696 142.098C92.1325 170.565 86.4793 207.97 86.4793 207.97H74.9286Z" fill="#1E394C"/>
<path fill-rule="evenodd" clip-rule="evenodd" d="M97.2843 55.7159C97.2843 55.7159 81.1241 59.6823 78.8882 62.2699C76.6535 64.8563 68.251 80.9831 68.4023 86.4157C68.5779 92.7755 79.4459 106.352 79.233 105.558V124.715C79.233 124.715 103.988 132.477 118.946 122.99C118.946 122.99 120.66 73.7898 118.602 68.3057C117.969 66.6209 109.834 59.5099 107.428 58.6482C105.02 57.7852 97.2843 55.7159 97.2843 55.7159Z" fill="#CEE5ED"/>
<path fill-rule="evenodd" clip-rule="evenodd" d="M68.4026 86.4151C68.5577 92.0856 77.2218 103.5 78.9397 105.337C78.9449 105.342 78.9449 105.342 78.9513 105.347C79.1359 105.486 79.2333 105.559 79.2333 105.559L84.691 110.475L91.2667 104.524C91.2667 104.524 79.1462 95.8579 80.8231 84.7329C82.0026 76.9055 90.1064 62.8739 90.1064 62.8739C92.891 61.2958 95.6192 58.429 97.7295 55.8362C97.4449 55.7591 97.2859 55.7179 97.2859 55.7179C97.2859 55.7179 81.1218 59.6804 78.8885 62.2681C76.6551 64.8545 68.2539 80.9825 68.4026 86.4151Z" fill="#CEE5ED"/>
<path fill-rule="evenodd" clip-rule="evenodd" d="M123.983 82.2465C127.207 82.2465 129.82 84.8676 129.82 88.101V118.878C129.82 122.113 127.207 124.734 123.983 124.734H70.6703C67.446 124.734 64.8331 122.113 64.8331 118.878V88.101C64.8331 84.8676 67.446 82.2465 70.6703 82.2465H123.983Z" fill="#FF3378"/>
<path opacity="0.24" fill-rule="evenodd" clip-rule="evenodd" d="M77.5679 82.2465C74.3448 82.2465 71.732 84.8676 71.732 88.101V118.878C71.732 122.113 74.3448 124.734 77.5679 124.734H70.6704C67.4461 124.734 64.8333 122.113 64.8333 118.878V88.101C64.8333 84.8676 67.4461 82.2465 70.6704 82.2465H77.5679Z" fill="black"/>
<path fill-rule="evenodd" clip-rule="evenodd" d="M129.82 97.6709H64.8344V89.2944H129.82V97.6709Z" fill="#1E394C"/>
<path fill-rule="evenodd" clip-rule="evenodd" d="M123.648 109.697H110.851V107.923H123.648V109.697Z" fill="#1E394C"/>
<path fill-rule="evenodd" clip-rule="evenodd" d="M123.647 113.659H117.46V111.884H123.647V113.659Z" fill="#1E394C"/>
<path fill-rule="evenodd" clip-rule="evenodd" d="M96.4244 46.7049V58.217C96.4244 58.217 100.164 69.7291 108.803 60.6748L109.576 51.4905L96.4244 46.7049Z" fill="#EA9249"/>
<path fill-rule="evenodd" clip-rule="evenodd" d="M118.86 37.6931C118.86 37.6931 133.473 34.5884 124.447 22.0847C124.447 22.0847 122.899 28.725 114.992 23.0339C110.961 20.1337 104.983 19.407 98.3148 23.0339C91.1802 26.9141 88.6879 38.8146 94.7918 45.0227L106.739 42.6087L118.86 37.6931Z" fill="#1E394C"/>
<path fill-rule="evenodd" clip-rule="evenodd" d="M118.86 37.6931C118.86 37.6931 120.579 57.6126 107.428 56.3201C97.1546 55.3092 97.5418 47.5243 97.5418 47.5243C97.5418 47.5243 94.1892 46.8336 94.0174 43.8164C93.8456 40.7978 94.7918 38.2963 97.7995 40.2808C97.7995 40.2808 103.129 36.8314 103.474 34.4161C103.474 34.4161 109.748 37.8655 118.86 37.6931Z" fill="#F2BF75"/>
<path fill-rule="evenodd" clip-rule="evenodd" d="M101.524 123.292C102.187 124.113 101.956 125.422 100.984 126.212L98.7548 128.024C97.7843 128.812 96.46 128.767 95.7971 127.947L88.7959 119.203L95.492 114.037L102.773 119.196C103.282 119.562 103.279 120.339 102.751 120.676C102.441 120.874 102.039 121.004 101.545 120.927C100.17 120.711 99.6125 119.937 99.6125 119.937L101.524 123.292Z" fill="#F6BA8E"/>
<path fill-rule="evenodd" clip-rule="evenodd" d="M96.7573 114.121L88.9394 120.433C88.9394 120.433 67.7022 96.8636 67.615 87.8543C67.5663 82.787 73.7009 70.5855 77.5445 64.0031H91.3073C91.3073 64.0031 81.4881 78.8296 78.5253 85.9418C77.9625 87.2935 78.1291 88.8356 78.956 90.0433C82.5407 95.2868 93.1317 110.624 96.7573 114.121Z" fill="#CEE5ED"/>
<path fill-rule="evenodd" clip-rule="evenodd" d="M77.5448 64.0029C77.5448 64.0029 69.7012 83.5134 69.7384 87.4271C69.814 95.185 86.7832 113.634 91.1602 118.64L88.9396 120.433C88.9396 120.433 67.7025 96.8634 67.6153 87.8541C67.5666 82.7867 73.7012 70.5853 77.5448 64.0029Z" fill="#B4CCD3"/>
<path fill-rule="evenodd" clip-rule="evenodd" d="M80.5587 82.0877L80.9921 82.242H116.469L116.954 82.0877L83.6036 81.2299C83.6036 81.2299 87.9344 69.1699 87.2549 69.5107C86.5639 69.8631 80.5587 82.0877 80.5587 82.0877Z" fill="#B4CCD3"/>
<path fill-rule="evenodd" clip-rule="evenodd" d="M113.079 53.4148C114.482 51.9281 114.682 49.2748 114.682 49.2748C114.682 49.2748 116.245 49.2748 116.445 49.0742C116.645 48.8735 115.964 43.3676 116.085 42.4017C116.169 41.7227 116.526 39.0668 116.726 37.6199C117.622 37.674 117.896 37.7112 118.86 37.6932C118.86 37.6932 120.579 57.6127 107.427 56.3202C110.629 56.3703 111.677 54.9016 113.079 53.4148Z" fill="#EA9249"/>
<path fill-rule="evenodd" clip-rule="evenodd" d="M9.17321 165.992C5.13218 161.697 4.1309 156.057 6.94115 153.397C9.74885 150.738 15.304 152.064 19.3463 156.361C23.3886 160.657 26.2668 168.293 23.4578 170.953C20.6488 173.613 13.2155 170.289 9.17321 165.992Z" fill="#198B20"/>
<path fill-rule="evenodd" clip-rule="evenodd" d="M6.94065 153.397C7.81245 152.572 8.94835 152.132 10.2227 152.044C10.0881 152.146 9.95347 152.245 9.82911 152.362C7.02014 155.022 8.02014 160.661 12.0624 164.957C15.1035 168.189 20.0624 170.869 23.5278 170.867C23.5035 170.894 23.4842 170.927 23.4573 170.953C20.6483 173.613 13.2163 170.289 9.1727 165.992C5.13168 161.697 4.13168 156.057 6.94065 153.397Z" fill="black" fill-opacity="0.24"/>
<path fill-rule="evenodd" clip-rule="evenodd" d="M29.7245 149.452C29.1835 143.656 31.6348 138.687 35.2002 138.352C38.7643 138.017 42.0912 142.445 42.6309 148.24C43.172 154.035 40.972 161.699 37.4079 162.034C33.8438 162.368 30.2643 155.247 29.7245 149.452Z" fill="#0DCC18"/>
<path fill-rule="evenodd" clip-rule="evenodd" d="M35.1998 138.352C35.8652 138.29 36.5216 138.393 37.1524 138.641C34.2293 139.816 32.3447 144.303 32.8255 149.451C33.2729 154.251 35.8062 159.946 38.687 161.577C38.2832 161.833 37.8562 161.991 37.4088 162.033C33.8434 162.368 30.2639 155.248 29.7242 149.451C29.1844 143.656 31.6357 138.686 35.1998 138.352Z" fill="black" fill-opacity="0.24"/>
<path fill-rule="evenodd" clip-rule="evenodd" d="M47.075 144.999C49.548 140.118 53.9852 137.401 56.9852 138.931C59.9878 140.46 60.4186 145.658 57.9455 150.54C55.475 155.421 49.8878 160.406 46.8878 158.876C43.8852 157.346 44.6032 149.88 47.075 144.999Z" fill="#198B20"/>
<path fill-rule="evenodd" clip-rule="evenodd" d="M47.0748 144.999C49.5479 140.118 53.9851 137.401 56.9851 138.931C58.1351 139.516 58.9043 140.642 59.2812 142.078C59.0069 141.816 58.703 141.588 58.362 141.415C55.3595 139.884 50.9223 142.602 48.4505 147.483C46.7159 150.91 45.8505 155.603 46.5236 158.629C43.9595 156.686 44.7107 149.668 47.0748 144.999Z" fill="black" fill-opacity="0.24"/>
<path fill-rule="evenodd" clip-rule="evenodd" d="M51.8501 165.399C56.6142 163.258 61.477 163.766 62.7129 166.531C63.9475 169.298 61.086 173.276 56.3206 175.416C51.5565 177.556 44.4796 178.045 43.245 175.278C42.0091 172.513 47.0847 167.541 51.8501 165.399Z" fill="#0DCC18"/>
<path fill-rule="evenodd" clip-rule="evenodd" d="M51.8499 165.399C56.614 163.258 61.4768 163.765 62.7127 166.531C62.9999 167.177 63.0563 167.891 62.9268 168.63C61.6101 165.964 56.823 165.496 52.1243 167.608C48.2909 169.33 44.2601 172.885 43.4755 175.65C43.3884 175.531 43.3037 175.412 43.2448 175.278C42.0089 172.512 47.0845 167.541 51.8499 165.399Z" fill="black" fill-opacity="0.24"/>
<path fill-rule="evenodd" clip-rule="evenodd" d="M7.86743 182.268C3.11102 180.569 0.155893 176.655 1.26743 173.525C2.37897 170.395 7.13538 169.236 11.8918 170.935C16.6495 172.635 21.8149 177.34 20.7033 180.469C19.5931 183.598 12.6238 183.967 7.86743 182.268Z" fill="#198B20"/>
<path fill-rule="evenodd" clip-rule="evenodd" d="M1.26667 173.525C1.7436 172.184 2.89359 171.206 4.42308 170.658C3.86539 171.147 3.43718 171.733 3.19359 172.421C2.08206 175.551 5.0359 179.466 9.79231 181.165C13.0103 182.314 17.2346 182.514 19.9795 181.556C17.8 183.657 12.0013 183.746 7.86667 182.268C3.11026 180.569 0.156416 176.654 1.26667 173.525Z" fill="black" fill-opacity="0.24"/>
<path fill-rule="evenodd" clip-rule="evenodd" d="M32.6105 199.468C31.5092 185.883 25.5861 173.543 15.7053 164.186C15.3194 163.819 15.9041 163.234 16.29 163.6C26.331 173.111 32.3169 185.661 33.4374 199.468C33.4797 199.999 32.6541 199.995 32.6105 199.468Z" fill="#1E394C"/>
<path fill-rule="evenodd" clip-rule="evenodd" d="M35.6143 197.535C35.2758 180.787 40.5182 164.721 50.6874 151.429C51.0053 151.012 51.722 151.424 51.4002 151.847C41.3156 165.028 36.1041 180.921 36.4399 197.535C36.4502 198.068 35.6258 198.068 35.6143 197.535Z" fill="#1E394C"/>
<path fill-rule="evenodd" clip-rule="evenodd" d="M39.1024 173.219C36.8524 166.027 36.2768 158.388 36.0011 150.893C35.9819 150.36 36.8075 150.36 36.8268 150.893C37.0998 158.321 37.6691 165.872 39.8986 172.999C40.0575 173.508 39.2614 173.725 39.1024 173.219Z" fill="#1E394C"/>
<path fill-rule="evenodd" clip-rule="evenodd" d="M51.9278 171.833C47.956 174.337 43.3227 176.248 38.9419 177.915C38.4445 178.102 38.2291 177.302 38.7227 177.115C43.0291 175.477 47.6034 173.582 51.5111 171.118C51.9624 170.833 52.3778 171.55 51.9278 171.833Z" fill="#1E394C"/>
<path fill-rule="evenodd" clip-rule="evenodd" d="M16.7677 178.281C20.7433 179.945 24.8074 181.308 28.9831 182.375C29.4972 182.506 29.2792 183.304 28.7626 183.173C24.5895 182.106 20.5241 180.744 16.5472 179.078C16.0651 178.876 16.2767 178.075 16.7677 178.281Z" fill="#1E394C"/>
<path fill-rule="evenodd" clip-rule="evenodd" d="M49.4486 195.62L46.941 218.396C46.6281 221.243 44.2294 223.399 41.3743 223.399H26.9012C24.0461 223.399 21.6474 221.243 21.3333 218.396L18.8269 195.62C18.691 194.38 19.6576 193.297 20.8999 193.297H47.3756C48.6192 193.297 49.5845 194.38 49.4486 195.62Z" fill="#CEE5ED"/>
<path fill-rule="evenodd" clip-rule="evenodd" d="M20.9008 193.297H30.0803C28.8367 193.297 27.87 194.38 28.0059 195.62L30.5136 218.396C30.8277 221.243 33.2251 223.398 36.0815 223.398H26.9021C24.0456 223.398 21.6482 221.243 21.3341 218.396L18.8277 195.62C18.6905 194.38 19.6572 193.297 20.9008 193.297Z" fill="#AAC6CE"/>
</svg>
